# xmcd
#
# Track frame offsets:
#	150
#	50775
#	80735
#	108330
#	134991
#	175376
#	229715
#	249860
#	282693
#	322813
#
# Disc length: 4521 seconds
#
# Revision: 1
# Processed by: cddbd v1.5.2PL0 Copyright (c) Steve Scherf et al.
# Submitted via: audiograbber 1.83.01
#
DISCID=9411a70a
DTITLE=Mayall, John - Historic Live Shows - Volume 3
DYEAR=2012
DGENRE=Blues
TTITLE0=How can you live like that
TTITLE1=Stone cold deal
TTITLE2=I don't mind
TTITLE3=When the devil starts crying
TTITLE4=One in a million
TTITLE5=Padlock on the Blues
TTITLE6=Dead city
TTITLE7=A hard road
TTITLE8=Room to move
TTITLE9=Ain't no brakeman
EXTD=
EXTT0=
EXTT1=
EXTT2=
EXTT3=
EXTT4=
EXTT5=
EXTT6=
EXTT7=
EXTT8=
EXTT9=
PLAYORDER=
